<?xml version="1.0" encoding="UTF-8" standalone="no"?>
<svg
   width="240mm"
   height="100mm"
   viewBox="0 0 240 100"
   version="1.1"
   id="svg6"
   inkscape:version="1.1-dev (0486c1a, 2020-10-10)"
   sodipodi:docname="veroku_lanscape_page.svg"
   inkscape:export-filename="/Users/everhardlouw/Desktop/veroku_color_ns.png"
   inkscape:export-xdpi="96"
   inkscape:export-ydpi="96"
   xmlns:inkscape="http://www.inkscape.org/namespaces/inkscape"
   xmlns:sodipodi="http://sodipodi.sourceforge.net/DTD/sodipodi-0.dtd"
   xmlns="http://www.w3.org/2000/svg"
   xmlns:svg="http://www.w3.org/2000/svg">
  <defs
     id="defs2" />
  <sodipodi:namedview
     id="base"
     pagecolor="#ffffff"
     bordercolor="#666666"
     borderopacity="1.0"
     inkscape:pageopacity="0.0"
     inkscape:pageshadow="2"
     inkscape:zoom="0.66704398"
     inkscape:cx="1162.592"
     inkscape:cy="421.26158"
     inkscape:document-units="mm"
     inkscape:current-layer="layer1"
     showgrid="false"
     inkscape:window-width="2304"
     inkscape:window-height="1296"
     inkscape:window-x="1440"
     inkscape:window-y="0"
     inkscape:window-maximized="0"
     height="50mm" />
  <g
     inkscape:label="Layer 1"
     inkscape:groupmode="layer"
     id="layer1"
     style="display:inline">
    <path
       id="Selection #2"
       fill="none"
       stroke="#000000"
       stroke-width="0.160624"
       d="m 175.30492,53.421675 v 34.831433 c 3.31158,0.67474 4.93357,-0.34012 4.08279,-3.827737 -1.36013,-3.959157 3.85866,-11.940724 5.92547,-4.972007 1.88188,2.873217 3.31203,6.114107 5.544,8.701164 4.19495,1.04223 4.44314,-0.60306 1.99982,-3.612967 -2.19056,-3.943707 -4.92687,-7.616267 -6.76725,-11.732564 2.23721,-3.225618 4.93967,-6.095579 7.1166,-9.365039 -2.54559,-0.164006 -5.22877,-0.348144 -6.48062,2.345197 -2.44285,3.011397 -4.77895,6.110702 -7.18099,9.155722 -0.34344,-7.160529 -0.0705,-14.349678 -0.15703,-21.523192 -1.36093,-7e-6 -2.72188,1.4e-5 -4.08279,-10e-6 z M 125.0553,82.995531 c -4.84779,4.15574 -13.54962,1.63913 -13.57147,-5.399227 0.0712,-2.736587 5.22829,-0.71867 7.56534,-1.337037 3.10835,-0.10472 6.27514,0.2124 9.34617,-0.16266 2.39131,-6.658708 -3.79403,-14.180818 -10.87748,-12.981269 -12.99872,0.69137 -14.20482,23.007583 -1.51004,25.34869 3.22252,0.32161 13.78956,0.0958 9.04748,-5.468497 z m 12.71943,-15.60841 c 0.72968,-3.319984 -0.42862,-4.751992 -3.82774,-3.943183 -0.59641,2.607503 -0.084,6.323791 -0.25504,9.356679 v 15.452491 c 3.31158,0.67474 4.93356,-0.34012 4.08278,-3.827737 0.51049,-5.776587 -1.90926,-13.205241 3.55198,-17.15103 3.08184,0.743587 7.96556,-1.258025 5.44131,-4.008671 -3.61118,-0.821177 -7.31235,0.733874 -8.99329,4.121451 z m 20.41391,-4.199491 c -9.56354,1.811387 -10.97464,15.031044 -6.03721,21.865991 4.76497,6.360687 16.57522,3.955387 18.00616,-4.129547 2.52821,-8.224627 -1.54329,-19.81813 -11.96895,-17.736444 z m -74.432267,0.256308 c 3.427708,8.305449 6.502349,16.769636 10.151988,24.97512 2.5276,0.19193 2.33087,-4.335597 3.701867,-6.147307 2.542922,-6.280084 5.155522,-12.531852 7.659282,-18.827813 -2.46304,-0.319374 -5.16182,-0.117 -5.383547,2.91313 -1.752685,4.783872 -3.531422,9.558209 -5.294522,14.338286 -2.23571,-5.655187 -4.016172,-11.498382 -6.391118,-17.088759 -1.465124,-0.286261 -2.961563,-0.118293 -4.44395,-0.162657 z m 114.160887,0 c 0.27748,6.927645 -0.67281,14.005136 0.75305,20.804933 2.02746,7.361887 12.83148,3.230147 14.20348,1.40369 -1.57313,3.230147 3.79187,3.469627 4.20113,1.749937 v -23.95856 c -3.31158,-0.674738 -4.93357,0.340117 -4.08279,3.827743 -0.21281,4.801696 0.47297,9.748313 -0.44016,14.439703 -4.99945,7.820534 -13.28572,-0.11268 -10.55198,-7.259407 V 63.443938 Z m -73.17602,9.693639 h -13.19053 c -0.15611,-7.216912 11.59572,-9.055607 13.01976,-1.780587 l 0.13029,0.887977 z m 34.54662,-6.547302 c 7.19935,-0.644777 8.19858,8.503772 6.59633,13.676349 -1.62023,8.307584 -13.81799,4.717247 -12.09239,-3.18586 -0.16459,-4.026607 0.55259,-9.779043 5.49606,-10.490489 z M 53.887168,78.501064 C 58.482489,72.795557 61.250319,65.8605 65.058136,59.624539 73.033248,45.105354 81.314143,30.746475 89.095396,16.125715 83.454593,17.142832 77.753662,17.90247 72.15185,19.084747 64.808247,31.326609 58.193553,44.047936 51.118065,56.468607 c -1.198046,3.981082 0.693398,8.290755 1.084104,12.405115 z M 21.101374,8.0750452 C 26.25015,35.290364 31.3175,62.521095 36.490321,89.731798 41.423825,87.008711 46.103157,83.868121 50.856035,80.848344 49.190897,68.120498 46.212236,55.586747 44.011701,42.938009 43.010718,38.980706 42.974524,34.558348 41.261248,30.91509 34.666399,23.196331 27.877777,15.635898 21.101374,8.0750452 Z"
       sodipodi:nodetypes="cccccccccsccccccccccccsccccccccccccccccccsccccccccscccccccccccccccccccc"
       style="stroke:#ffffff" />
    <path
       style="fill:#38761d;fill-opacity:1;stroke:none;stroke-width:0.113707"
       d="M 36.552249,89.227328 C 36.467299,88.940688 35.197644,82.242031 31.762341,63.95605 30.099882,55.106828 27.357007,40.523945 25.667064,31.549646 23.977122,22.575345 22.320473,13.77475 21.985624,11.992765 c -0.33485,-1.781981 -0.593127,-3.2556571 -0.57395,-3.2748341 0.04707,-0.04707 4.052107,4.4092511 8.818602,9.8123001 2.15166,2.439008 5.066545,5.739344 6.477524,7.33408 1.410977,1.594737 3.100767,3.537501 3.755093,4.317257 l 1.189675,1.417735 0.312962,1.481786 c 0.17213,0.81498 0.904166,4.603033 1.626746,8.41789 0.722579,3.814861 2.255115,11.899405 3.405637,17.965658 1.150522,6.06625 2.351929,12.42071 2.669797,14.12105 0.317865,1.70034 0.755911,3.973187 0.973436,5.050767 0.217522,1.07759 0.395497,2.04624 0.395497,2.15256 0,0.1341 -1.610826,1.15073 -5.258935,3.319037 -5.476386,3.254967 -9.010318,5.318267 -9.108899,5.318267 -0.03168,0 -0.08413,-0.0895 -0.11656,-0.19899 z"
       id="path16" />
    <path
       style="fill:#6aa84f;fill-opacity:1;stroke-width:0.113707"
       d="m 53.782621,78.831674 c -0.03758,-0.20793 -0.634929,-4.062137 -1.327441,-8.564918 -0.69251,-4.502768 -1.384525,-8.952612 -1.537812,-9.888526 -0.153283,-0.935916 -0.278698,-1.902174 -0.278698,-2.147242 0,-0.4841 0.36622,-1.266584 1.735452,-3.708026 0.439825,-0.784244 4.967224,-8.922012 10.060884,-18.08393 5.093661,-9.161915 9.371423,-16.777856 9.506141,-16.924311 0.134715,-0.146452 0.325143,-0.309552 0.423171,-0.362439 0.09803,-0.05289 3.705374,-0.688232 8.016322,-1.411875 4.310949,-0.723643 7.981617,-1.345541 8.157044,-1.381995 l 0.318952,-0.06628 -0.589986,1.175903 C 87.942157,18.11478 81.58849,29.593892 74.147388,42.977168 66.706286,56.360446 59.696307,68.973352 58.569653,71.00585 c -1.935105,3.490967 -4.458745,7.904554 -4.637254,8.110084 -0.0448,0.0516 -0.112197,-0.0763 -0.149778,-0.28426 z"
       id="path833" />
    <path
       style="fill:#6aa84f;fill-opacity:1;stroke-width:0.113707"
       d="M 36.613483,89.113628 C 36.498778,88.695498 36.29331,87.662198 35.635584,84.195811 35.042701,81.071164 22.357438,13.633129 21.746783,10.359463 21.620114,9.6804023 21.537719,9.1035636 21.563683,9.0776006 c 0.02596,-0.02596 0.374336,0.300318 0.77416,0.7250687 1.627175,1.7286207 14.413915,16.1694997 17.460271,19.7189927 l 1.821473,2.122308 0.192726,0.947772 c 0.310991,1.529355 2.830763,14.752243 5.413456,28.407936 1.318811,6.97306 2.704611,14.261429 3.079557,16.196396 0.653286,3.37137 0.67327,3.52638 0.479105,3.7164 -0.408987,0.40025 -13.800176,8.400134 -14.061179,8.400134 -0.03035,0 -0.07974,-0.0895 -0.109769,-0.19898 z"
       id="path835" />
    <path
       style="fill:#6a9622;fill-opacity:1;stroke-width:0.113707"
       d="m 53.822456,78.861394 c 0,-0.084 -0.690769,-4.604347 -1.535041,-10.045292 -0.844272,-5.440963 -1.535041,-10.142984 -1.535041,-10.448933 0,-0.369887 0.108498,-0.793554 0.323813,-1.264443 0.295206,-0.645607 5.785374,-10.545188 15.10052,-27.228467 4.699687,-8.417062 5.694288,-10.15887 5.966571,-10.449043 0.124936,-0.133144 0.39035,-0.27068 0.589809,-0.305631 3.311747,-0.580345 15.751352,-2.692776 15.857497,-2.692839 0.100833,-6.4e-5 0.07015,0.145819 -0.101626,0.483163 -0.820412,1.611191 -30.457664,54.989998 -32.81326,59.099028 -1.517353,2.646827 -1.853242,3.163817 -1.853242,2.852457 z"
       id="path837" />
    <path
       style="opacity:1;fill:#6ab722;fill-opacity:1;fill-rule:nonzero;stroke:#6ab722;stroke-width:1;stroke-linejoin:miter;stroke-miterlimit:1;stroke-dasharray:none;stroke-dashoffset:0;stroke-opacity:1;paint-order:markers stroke fill"
       d="M 36.614466,88.943068 C 36.448874,88.269898 21.84698,10.669111 21.706931,9.7179633 l -0.07534,-0.5116807 0.774795,0.7959454 c 1.296693,1.332093 14.008927,15.683156 18.162687,20.504174 l 1.011542,1.174038 0.781071,4.05647 c 0.699498,3.632819 6.939307,36.431707 8.057597,42.353904 0.24574,1.30137 0.4468,2.43796 0.4468,2.52573 0,0.22904 -0.764818,0.72232 -5.858558,3.778597 -5.028097,3.016897 -8.091558,4.803767 -8.235702,4.803767 -0.05193,0 -0.122743,-0.11513 -0.157357,-0.25584 z"
       id="path839" />
    <path
       style="fill:#6ab722;fill-opacity:1;stroke-width:0.113707"
       d="m 52.751952,71.545947 c -1.821061,-11.892604 -1.99817,-13.17528 -1.88717,-13.667442 0.133581,-0.59228 0.463482,-1.211186 5.003409,-9.386564 13.06381,-23.524951 15.927377,-28.602667 16.353708,-28.998614 0.284361,-0.264094 0.733702,-0.360077 5.481185,-1.170818 9.81325,-1.675834 10.913617,-1.857632 10.913617,-1.803096 0,0.103685 -1.041582,1.996173 -9.242316,16.792686 -8.516514,15.366272 -18.175904,32.742981 -22.027798,39.626758 -1.918525,3.42864 -3.367997,5.912747 -3.450076,5.912747 -0.01423,0 -0.529286,-3.287537 -1.144559,-7.305657 z"
       id="path841" />
    <path
       style="fill:#4d8534;fill-opacity:1;stroke:#4d8534;stroke-width:1;stroke-linejoin:miter;stroke-miterlimit:1;stroke-dasharray:none;stroke-opacity:1"
       d="m 53.887168,78.501074 c -0.145333,-0.41487 -2.844623,-18.408967 -2.975853,-19.83773 l -0.0736,-0.801293 0.846952,-1.643399 c 1.268219,-2.46082 16.347535,-29.572479 19.119336,-34.375364 1.429176,-2.476432 1.431047,-2.478181 2.973975,-2.781377 2.143297,-0.421174 14.649492,-2.521268 14.701946,-2.468814 0.06614,0.06613 -0.135287,0.435909 -6.660457,12.227589 -11.765003,21.260609 -25.196431,45.381681 -26.909158,48.325318 -0.85562,1.47054 -0.942419,1.5855 -1.023141,1.35507 z"
       id="path843" />
    <path
       style="fill:#333333;fill-opacity:1;stroke:none;stroke-width:0.113707"
       d="m 94.233661,88.327268 c -0.37822,-0.0782 -0.93056,-1.368817 -5.770685,-13.483821 l -4.48596,-11.228516 h 1.737098 c 2.364692,0 2.351929,-0.0037 2.71417,0.778613 0.163689,0.353497 1.146325,2.996449 2.183635,5.873212 2.978932,8.261498 3.941222,10.788368 4.040742,10.610538 0.049,-0.0875 1.39984,-3.7131 3.001957,-8.056917 1.60211,-4.343792 3.048772,-8.161466 3.214802,-8.483702 0.25867,-0.502037 0.35954,-0.595429 0.70485,-0.652563 0.48688,-0.08056 3.41621,-0.09216 3.41621,-0.01352 0,0.102 -1.81075,4.592973 -4.49342,11.144435 -1.459662,3.564697 -3.293149,8.067484 -4.074419,10.006174 -1.52567,3.785847 -1.4468,3.659537 -2.18898,3.506077 z"
       id="path845" />
    <path
       style="fill:#333333;fill-opacity:1;stroke:none;stroke-width:0.113707"
       d="m 115.33779,88.167758 c -4.0168,-1.048817 -7.02817,-4.574897 -7.85915,-9.202444 -0.0918,-0.51126 -0.15353,-1.69528 -0.15412,-2.956377 -7.9e-4,-1.78775 0.0387,-2.28144 0.2632,-3.28826 0.65355,-2.930938 1.7176,-4.923349 3.55498,-6.656646 1.42427,-1.343581 3.00325,-2.211517 4.74323,-2.607268 1.08538,-0.246864 3.91649,-0.248684 5.11356,-0.0033 3.17134,0.650113 5.83898,2.855 6.95929,5.752049 0.47207,1.220741 0.6827,2.582415 0.6827,4.413495 0,1.62983 -0.11056,2.20567 -0.45932,2.39232 -0.13025,0.0697 -3.33398,0.1113 -8.57289,0.1113 h -8.36492 l 7.9e-4,0.36955 c 10e-4,0.733537 0.34114,2.605687 0.6295,3.468227 0.43747,1.30853 1.01743,2.263517 1.91895,3.159817 2.546,2.53128 6.49738,2.79832 10.15861,0.68653 0.49641,-0.28633 0.95635,-0.5206 1.02208,-0.5206 0.0657,0 0.41654,0.58801 0.77956,1.3067 l 0.66004,1.30669 -0.38007,0.39213 c -0.68454,0.70627 -2.92015,1.642397 -4.63747,1.941877 -1.49227,0.26023 -4.95378,0.22263 -6.05842,-0.0658 z m 9.50956,-15.781191 c -0.14993,-1.797754 -0.72027,-3.046138 -1.90016,-4.159179 -1.26435,-1.192717 -2.65612,-1.718159 -4.48246,-1.692272 -2.17649,0.03085 -3.58482,0.577533 -4.89403,1.899749 -1.13425,1.145514 -1.81331,2.533795 -2.08736,4.267412 l -0.0913,0.5777 h 6.76492 6.76491 z"
       id="path847" />
    <path
       style="fill:#333333;fill-opacity:1;stroke:none;stroke-width:0.113707"
       d="M 133.87198,75.895237 V 63.614931 h 1.8736 1.87359 l 0.031,2.068957 0.031,2.06896 0.95032,-1.280044 c 0.52267,-0.704024 1.21344,-1.489609 1.53504,-1.745747 0.6981,-0.556014 1.94613,-1.151792 2.77917,-1.326719 1.20212,-0.252426 4.76916,-0.05208 4.64683,0.260988 -0.0267,0.06829 -0.34229,0.891685 -0.70134,1.829765 -0.35905,0.938081 -0.68497,1.738474 -0.72427,1.778651 -0.0393,0.04018 -0.50639,-0.09856 -1.03796,-0.308308 -1.58396,-0.624986 -2.82168,-0.501303 -4.20103,0.419788 -0.89414,0.597086 -1.70277,1.59193 -2.34541,2.885534 -0.89478,1.801151 -0.87889,1.625451 -0.92791,10.262018 l -0.0434,7.646774 h -1.86961 -1.86961 z"
       id="path849" />
    <path
       style="fill:#333333;fill-opacity:1;stroke:none;stroke-width:0.113707"
       d="m 157.35241,88.240838 c -2.38628,-0.54858 -4.58275,-2.215807 -5.84899,-4.439667 -2.40131,-4.217357 -2.57486,-10.710354 -0.40226,-15.050316 1.2679,-2.532752 3.18645,-4.249766 5.62472,-5.033871 3.32934,-1.070655 7.50239,-0.41238 9.94662,1.569024 1.83403,1.486752 3.1464,4.003704 3.72349,7.141169 0.0947,0.51474 0.14494,1.78017 0.14227,3.58176 -0.004,2.436567 -0.0346,2.915437 -0.2469,3.819747 -1.016,4.327007 -3.44338,7.238177 -6.87399,8.244014 -0.70208,0.20585 -1.19518,0.25103 -3.10858,0.28482 -1.65284,0.0292 -2.46052,-0.003 -2.95638,-0.11668 z m 4.60754,-3.203477 c 1.87621,-0.55717 3.47182,-2.46311 4.09547,-4.891987 0.4925,-1.91809 0.68387,-4.827007 0.44438,-6.754667 -0.43449,-3.497251 -1.80966,-5.686363 -4.14429,-6.597262 -0.59305,-0.231389 -0.88292,-0.266642 -2.21728,-0.269658 -1.3399,-0.003 -1.61806,0.02968 -2.18806,0.25731 -2.06967,0.826513 -3.49356,2.880992 -4.01741,5.79658 -0.25054,1.39442 -0.3372,4.366017 -0.16935,5.806787 0.41548,3.56628 1.87367,5.874847 4.17526,6.610177 0.88336,0.28222 3.13427,0.30614 4.02128,0.0427 z"
       id="path851" />
    <path
       style="fill:#333333;fill-opacity:1;stroke:none;stroke-width:0.113707"
       d="M 175.48863,70.892143 V 53.608741 h 1.87175 1.87175 l 0.0328,10.603151 c 0.0217,6.997278 0.0726,10.669965 0.14969,10.799655 0.098,0.1649 0.64713,-0.48451 3.4112,-4.034467 1.81189,-2.327045 3.899,-4.935502 4.63802,-5.79657 l 1.34368,-1.565579 h 2.04878 2.04878 l -0.40766,0.568534 c -0.22421,0.312693 -0.59804,0.837166 -0.83073,1.165492 -0.2327,0.32833 -1.14586,1.492401 -2.02926,2.586831 -1.64227,2.034578 -3.68782,4.744359 -3.68782,4.885319 0,0.3818 1.01664,2.22124 3.56726,6.454377 1.64942,2.737447 3.34407,5.591197 3.76589,6.341667 0.42182,0.75046 0.92263,1.64095 1.11292,1.978857 l 0.34597,0.61439 -1.9229,-0.0634 -1.9229,-0.0634 -0.39798,-0.4504 c -0.21888,-0.24772 -1.67313,-2.593537 -3.23165,-5.212927 -3.7642,-6.326424 -3.74469,-6.297134 -4.19644,-6.299274 -0.31094,-0.002 -0.52347,0.16747 -1.53759,1.222337 -1.53094,1.59246 -2.02996,2.22075 -2.17306,2.73598 -0.0694,0.25002 -0.11721,1.980107 -0.11758,4.258697 l -5.3e-4,3.837597 h -1.87616 -1.87616 z"
       id="path853" />
    <path
       style="fill:#333333;fill-opacity:1;stroke:none;stroke-width:0.113707"
       d="m 204.28343,88.390398 c -2.37019,-0.39485 -4.28812,-1.766177 -5.23038,-3.739757 -0.95515,-2.00059 -1.04476,-3.150267 -1.04806,-13.445801 l -0.002,-7.589909 h 1.92643 1.92644 l 0.0434,8.499556 c 0.0373,7.294097 0.0692,8.606507 0.22523,9.253567 0.59542,2.469877 2.20622,3.739577 4.73978,3.736067 1.16251,-0.002 1.93464,-0.19032 3.06669,-0.74948 1.08218,-0.53453 2.33647,-1.7488 2.80678,-2.717227 l 0.33133,-0.68224 0.0312,-8.670127 0.0312,-8.670116 h 1.93027 1.93026 v 12.280306 12.280311 h -1.91616 -1.91616 l -0.073,-0.938077 c -0.0402,-0.51595 -0.0733,-1.28347 -0.0737,-1.7056 -7.9e-4,-0.89174 -0.16356,-1.00246 -0.51483,-0.3502 -0.33907,0.62962 -1.10371,1.3363 -2.12778,1.96653 -1.82811,1.125027 -4.05798,1.580117 -6.08647,1.242197 z"
       id="path855" />
  </g>
</svg>
